<?xml version="1.0" encoding="utf-8"?>
<!-- Generator: Adobe Illustrator 25.0.1, SVG Export Plug-In . SVG Version: 6.00 Build 0)  -->
<svg version="1.1" id="Layer_1" xmlns="http://www.w3.org/2000/svg" xmlns:xlink="http://www.w3.org/1999/xlink" x="0px" y="0px"
	 viewBox="0 0 512 512" style="enable-background:new 0 0 512 512;" xml:space="preserve">
<g transform="translate(0.000000,512.000000) scale(0.100000,-0.100000)">
	<path d="M1780,5104C863,4994,123,4249,16,3329c-109-932,438-1816,1323-2139c667-244,1442-108,1977,347c28,23,55,43,60,43
		s362-353,794-784c684-684,790-785,821-791c74-14,138,50,124,124c-6,31-107,137-791,821c-431,432-784,789-784,794s20,32,43,60
		c150,176,280,407,359,636c249,729,63,1534-481,2079C3013,4967,2404,5179,1780,5104z M2295,4884c656-97,1203-545,1436-1177
		c71-193,103-381,103-612c1-233-30-414-108-628c-176-487-586-897-1073-1073c-214-78-395-109-628-108c-290,0-511,49-775,171
		c-296,137-588,398-759,676c-185,303-272,608-272,957c-1,357,86,663,273,964c138,223,352,436,575,575C1439,4860,1864,4948,2295,4884
		z"/>
</g>
</svg>
